<svg xmlns="http://www.w3.org/2000/svg" width="352" height="358" viewBox="0 0 352 358">
  <g id="call-center" transform="translate(-122.546 -81)">
    <circle id="Ellipse_39" data-name="Ellipse 39" cx="153.5" cy="153.5" r="153.5" transform="translate(135.545 132)" fill="#d4e6c8"/>
    <rect id="Rectangle_149" data-name="Rectangle 149" width="147" height="192" rx="10" transform="translate(208.545 200)" fill="#0052cc"/>
    <path id="Path_164" data-name="Path 164" d="M0,0H120.768l.068,134.632-.068,2.353-11.361,14.608L91.09,168.73H0Z" transform="translate(223.717 210.115)" fill="#fff"/>
    <rect id="Rectangle_151" data-name="Rectangle 151" width="83" height="16" transform="translate(241.545 215)" fill="#fbcd59"/>
    <rect id="Rectangle_150" data-name="Rectangle 150" width="70" height="26" transform="translate(247.545 193)" fill="#fbcd59"/>
    <path id="Path_163" data-name="Path 163" d="M124.043,140.451l-11.1,11.181a.582.582,0,0,1-.42.175h0a.583.583,0,0,1-.42-.173l-4.123-4.124a2.966,2.966,0,1,0-4.194,4.194l4.123,4.124a6.482,6.482,0,0,0,4.613,1.911h.011a6.483,6.483,0,0,0,4.619-1.927l11.1-11.181a2.966,2.966,0,0,0-4.21-4.179Zm4.195-80.765a2.966,2.966,0,0,0-4.195.015l-11.1,11.181a.581.581,0,0,1-.42.175h0a.583.583,0,0,1-.42-.173l-4.123-4.124a2.966,2.966,0,1,0-4.194,4.194l4.123,4.124a6.481,6.481,0,0,0,4.614,1.911h.012a6.482,6.482,0,0,0,4.619-1.927l11.1-11.181A2.966,2.966,0,0,0,128.238,59.687Zm0,40.375a2.966,2.966,0,0,0-4.195.015l-11.1,11.181a.581.581,0,0,1-.42.175h0a.583.583,0,0,1-.42-.173l-4.123-4.124a2.966,2.966,0,1,0-4.194,4.194l4.123,4.124a6.481,6.481,0,0,0,4.614,1.911h.012a6.482,6.482,0,0,0,4.619-1.927l11.1-11.181a2.966,2.966,0,0,0-.015-4.194ZM109.646,56.371H99.978A6.533,6.533,0,0,0,93.453,62.9V84.289a6.533,6.533,0,0,0,6.525,6.525h21.393a6.533,6.533,0,0,0,6.525-6.525V76.784a2.966,2.966,0,0,0-5.932,0v7.505a.594.594,0,0,1-.593.593H99.978a.594.594,0,0,1-.593-.593V62.9a.594.594,0,0,1,.593-.593h9.667a2.966,2.966,0,0,0,0-5.932ZM200.606,6.09h-13.6a2.966,2.966,0,1,0,0,5.932h13.6a8.86,8.86,0,0,1,8.85,8.85V187.693a8.861,8.861,0,0,1-8.85,8.85H76.542a8.86,8.86,0,0,1-8.85-8.85V20.872a8.861,8.861,0,0,1,8.85-8.85H99.006v5.884H78.512a4.941,4.941,0,0,0-4.935,4.935V144.981a2.966,2.966,0,1,0,5.932,0V23.838H93.6a8.834,8.834,0,0,0-.5,2.942v8.226a8.884,8.884,0,0,0,8.874,8.874h73.2a8.884,8.884,0,0,0,8.874-8.874V26.781a8.832,8.832,0,0,0-.5-2.942H197.64V153.878H182.249a14.8,14.8,0,0,0-14.782,14.783v15.394H79.508v-27.21a2.966,2.966,0,1,0-5.932,0v28.207a4.941,4.941,0,0,0,4.935,4.935h91.921a2.977,2.977,0,0,0,2.1-.869l.007-.007L202.7,158.94a3,3,0,0,0,.859-1.908c0-.026.009-134.124.009-134.191a4.941,4.941,0,0,0-4.935-4.935H178.143V9.678A9.689,9.689,0,0,0,168.466,0H108.682A9.69,9.69,0,0,0,99.7,6.09H76.542A14.8,14.8,0,0,0,61.76,20.872V187.693a14.8,14.8,0,0,0,14.782,14.782H200.606a14.8,14.8,0,0,0,14.782-14.782V20.872A14.8,14.8,0,0,0,200.606,6.09ZM173.4,179.859v-11.2a8.861,8.861,0,0,1,8.85-8.852h11.2ZM104.937,9.678a3.75,3.75,0,0,1,3.745-3.746h59.783a3.75,3.75,0,0,1,3.745,3.746V20.562a3.75,3.75,0,0,1-3.745,3.746H108.682a3.75,3.75,0,0,1-3.745-3.746Zm-5.908,17.1a2.932,2.932,0,0,1,.895-2.109,9.688,9.688,0,0,0,8.758,5.568h59.783a9.688,9.688,0,0,0,8.758-5.568,2.932,2.932,0,0,1,.895,2.109v8.226a2.945,2.945,0,0,1-2.942,2.942H101.972a2.945,2.945,0,0,1-2.942-2.942Zm-5.576,97.883a6.533,6.533,0,0,0,6.525,6.525h21.393a6.533,6.533,0,0,0,6.525-6.525v-7.505a2.966,2.966,0,1,0-5.932,0v7.505a.594.594,0,0,1-.593.593H99.978a.594.594,0,0,1-.593-.593V103.271a.594.594,0,0,1,.593-.593h9.667a2.966,2.966,0,0,0,0-5.932H99.978a6.533,6.533,0,0,0-6.525,6.525Zm44.972,18.389h42.3a2.966,2.966,0,0,0,0-5.932h-42.3a2.966,2.966,0,0,0,0,5.932ZM93.453,165.039a6.533,6.533,0,0,0,6.525,6.525h21.393a6.533,6.533,0,0,0,6.525-6.525v-7.5a2.966,2.966,0,1,0-5.932,0v7.5a.594.594,0,0,1-.593.593H99.978a.594.594,0,0,1-.593-.593V143.646a.594.594,0,0,1,.593-.593h9.667a2.966,2.966,0,0,0,0-5.932H99.978a6.533,6.533,0,0,0-6.525,6.525Zm44.972-10.122h24.507a2.966,2.966,0,1,0,0-5.932H138.426a2.966,2.966,0,0,0,0,5.932Zm0-40.375h24.507a2.966,2.966,0,1,0,0-5.932H138.426a2.966,2.966,0,0,0,0,5.932Zm0-11.864h42.3a2.966,2.966,0,0,0,0-5.932h-42.3a2.966,2.966,0,0,0,0,5.932Zm0-28.511h42.3a2.966,2.966,0,0,0,0-5.932h-42.3a2.966,2.966,0,0,0,0,5.932Zm0-11.864h42.3a2.966,2.966,0,0,0,0-5.932h-42.3a2.966,2.966,0,0,0,0,5.932Z" transform="translate(144.184 189.574)"/>
    <ellipse id="Ellipse_40" data-name="Ellipse 40" cx="32" cy="32.5" rx="32" ry="32.5" transform="translate(410.545 81)" fill="#c73a0a"/>
    <circle id="Ellipse_46" data-name="Ellipse 46" cx="20.5" cy="20.5" r="20.5" transform="translate(122.546 307)" fill="#c73a0a"/>
    <ellipse id="Ellipse_41" data-name="Ellipse 41" cx="10" cy="10.5" rx="10" ry="10.5" transform="translate(454.545 172)" fill="#20314d"/>
    <ellipse id="Ellipse_49" data-name="Ellipse 49" cx="10" cy="10.5" rx="10" ry="10.5" transform="translate(153.545 414)" fill="#277673"/>
    <circle id="Ellipse_47" data-name="Ellipse 47" cx="14.5" cy="14.5" r="14.5" transform="translate(398.545 410)" fill="#fff"/>
    <circle id="Ellipse_42" data-name="Ellipse 42" cx="4.5" cy="4.5" r="4.5" transform="translate(393.545 88)" fill="#e8c77a"/>
    <circle id="Ellipse_50" data-name="Ellipse 50" cx="4.5" cy="4.5" r="4.5" transform="translate(433.545 379)" fill="#c73a0a"/>
    <circle id="Ellipse_45" data-name="Ellipse 45" cx="9.5" cy="9.5" r="9.5" transform="translate(144.545 275)" fill="#fff"/>
    <circle id="Ellipse_43" data-name="Ellipse 43" cx="5" cy="5" r="5" transform="translate(410.545 247)" fill="#fff"/>
    <circle id="Ellipse_44" data-name="Ellipse 44" cx="0.5" cy="0.5" r="0.5" transform="translate(410.545 247)" fill="#fff"/>
  </g>
</svg>
