<svg xmlns="http://www.w3.org/2000/svg" width="122" height="107" viewBox="0 0 122 107">
  <path id="picture-solid" d="M116.375,4H9.625A7.634,7.634,0,0,0,2,11.643v91.714A7.634,7.634,0,0,0,9.625,111h106.75A7.634,7.634,0,0,0,124,103.357V11.643A7.634,7.634,0,0,0,116.375,4ZM28.382,19.286A11.464,11.464,0,1,1,16.945,30.75,11.451,11.451,0,0,1,28.382,19.286ZM17.25,91.893V76.225L40.125,52.991a3.806,3.806,0,0,1,5.376,0l9.874,9.668L26.095,91.893Zm91.5,0H36.884L60.636,68.085,81.224,47.45a3.806,3.806,0,0,1,5.376,0l22.151,22.2Z" transform="translate(-2 -4)" fill="#a29f9f"/>
</svg>
