<svg xmlns="http://www.w3.org/2000/svg" width="106.133" height="106.133" viewBox="0 0 106.133 106.133">
  <path id="folder" d="M101.693,47.76H95.52V34.9a4.839,4.839,0,0,0-4.833-4.833H84.907V25.8L57.337,0H14.151V17.689H4.833A4.839,4.839,0,0,0,0,22.521v80.007l.1,0a4.542,4.542,0,0,0,.833,1.82,4.494,4.494,0,0,0,3.6,1.781H83.711a4.491,4.491,0,0,0,4.334-3.207l18.089-49.6v-.313C106.133,49.971,104.265,47.76,101.693,47.76ZM54.836,4.047A.211.211,0,0,1,55.2,3.9L81.008,27.943a.21.21,0,0,1-.149.359H54.836ZM28.3,8.844H45.991a1.769,1.769,0,1,1,0,3.538H28.3a1.769,1.769,0,1,1,0-3.538Zm0,12.382H45.991a1.769,1.769,0,1,1,0,3.538H28.3a1.769,1.769,0,1,1,0-3.538Zm0,12.382H70.756a1.769,1.769,0,1,1,0,3.538H28.3a1.769,1.769,0,1,1,0-3.538ZM18.186,50.967,3.538,91.144V22.521a1.3,1.3,0,0,1,1.295-1.295h9.319V54.836L17.1,47.47a2.35,2.35,0,0,1,2.183-1.479H84.907V33.609h5.781A1.3,1.3,0,0,1,91.982,34.9V47.76H22.52A4.491,4.491,0,0,0,18.186,50.967Z" fill="#a29f9f"/>
</svg>
