<svg id="prefix__Layer_1" data-name="Layer 1" viewBox="0 0 705.88 708.14" width="1em" height="1em"><defs><style>.prefix__cls-1,.prefix__cls-3{fill:#fff}.prefix__cls-1{fill-rule:evenodd}.prefix__cls-2{fill:none;stroke:#fff;stroke-miterlimit:133.33;stroke-width:19px;stroke-linecap:round}</style></defs><path class="prefix__cls-1" d="M378.37 575C478.09 575 559 499 559 405.23a161.75 161.75 0 00-3.62-34.35c-8.76-39.53-15.9-21.52-15.9 18.43 0 94-80.89 169.84-180.7 169.84-42.59 0-37.62 15.87 19.56 15.87zM316.26 140c-99.71 0-180.65 76-180.65 169.78a161.77 161.77 0 003.62 34.36c8.75 39.53 15.89 21.51 15.89-18.44 0-94 80.9-169.83 180.71-169.83 42.59 0 37.61-15.87-19.57-15.87z"></path><path class="prefix__cls-1" d="M705.88 708.17c0-12.86-.09-261.78-.09-350 0-194.95-157.95-352.92-352.87-352.92S0 163.24 0 358.19s158 353 352.92 353m-2.57-96.89c-143.1 0-259.06-116-259.06-259.16 0-141.44 113.35-256.43 254.23-259 146.3-2.73 266.48 117.4 263.9 263.71-2.54 140.92-117.59 254.41-259.07 254.41zm276.07 45.57a32 32 0 1132-32 32 32 0 01-32 31.96z"></path><path class="prefix__cls-2" d="M235 413c0-15.27 0-22.91 3.43-28.52a23.42 23.42 0 017.7-7.7c5.61-3.44 13.25-3.44 28.52-3.44h12.83c22 0 33 0 39.83 6.83S334.1 398 334.1 420v12.8c0 15.27 0 22.91-3.44 28.52A23.33 23.33 0 01323 469c-5.61 3.44-13.24 3.44-28.52 3.44-22.91 0-34.36 0-42.78-5.16a35.13 35.13 0 01-11.55-11.55M468.24 298.66c0 15.27 0 22.91-3.44 28.52a23.23 23.23 0 01-7.7 7.7c-5.61 3.44-13.25 3.44-28.52 3.44h-12.83c-22 0-33 0-39.82-6.84s-6.84-17.82-6.84-39.82v-12.83c0-15.27 0-22.91 3.44-28.52a23.23 23.23 0 017.7-7.7c5.61-3.44 13.25-3.44 28.52-3.44 22.91 0 34.37 0 42.78 5.16a34.85 34.85 0 0111.55 11.55"></path><path class="prefix__cls-3" d="M404.09 288.74c0-6 0-9 1.5-11.14a8.27 8.27 0 011.94-1.93c2.12-1.51 5.12-1.51 11.14-1.51s9 0 11.14 1.51a8.22 8.22 0 011.93 1.93c1.51 2.13 1.51 5.13 1.51 11.14s0 9-1.51 11.15a8.22 8.22 0 01-1.93 1.93c-2.13 1.51-5.13 1.51-11.14 1.51s-9 0-11.14-1.51a8.27 8.27 0 01-1.94-1.93c-1.5-2.13-1.5-5.13-1.5-11.15zM360.35 472.46a8.75 8.75 0 0017.49 0zm19.11-95.22l4.86 7.28zm-6.46 6.44l-7.28-4.86zm60.22-19.12h-23.3v17.5h23.33zm-72.9 72.9v35h17.49v-35zm49.57-72.9c-8 0-14.68 0-20.05.54-5.53.56-10.65 1.78-15.27 4.87l9.72 14.55c1.27-.85 3.18-1.59 7.32-2s9.91-.44 18.28-.44zm-32.08 49.57c0-8.37 0-14 .45-18.28.42-4.13 1.16-6.05 2-7.31l-14.55-9.72c-3.08 4.62-4.31 9.74-4.87 15.26s-.53 12.05-.53 20.05zM374.6 370a32.14 32.14 0 00-8.85 8.85l14.55 9.72a14.51 14.51 0 014-4zM477 373.31a8.75 8.75 0 10-17.5 0zm-23.15 97.37l3.35 8.08zm12.62-12.63l-8.08-3.34zm-56.55 23.15h23.33v-17.49h-23.33zM477 414.13v-40.82h-17.5v40.82zm-43.75 67.07c5.31 0 9.74 0 13.36-.24a32.69 32.69 0 0010.58-2.2l-6.7-16.16a16.43 16.43 0 01-5.07.91c-2.89.19-6.62.2-12.17.2zm26.24-43.74c0 5.56 0 9.29-.2 12.17a16.14 16.14 0 01-.91 5.08l16.17 6.69a32.89 32.89 0 002.19-10.58c.25-3.62.25-8 .25-13.36zm-2.3 41.3a32.07 32.07 0 0017.36-17.36l-16.17-6.69a14.6 14.6 0 01-7.89 7.89z"></path><path d="M235 298.66c0-22.91 0-34.36 5.15-42.78a35 35 0 0111.55-11.55c8.42-5.16 19.87-5.16 42.78-5.16 15.28 0 22.91 0 28.52 3.44a23.23 23.23 0 017.7 7.7c3.44 5.61 3.44 13.25 3.44 28.52v12.83c0 22 0 33-6.83 39.82s-17.83 6.84-39.83 6.84h-12.87c-15.27 0-22.91 0-28.52-3.44a23.42 23.42 0 01-7.7-7.7c-3.39-5.61-3.39-13.25-3.39-28.52z" fill="none" stroke="#fff" stroke-miterlimit="133.33" stroke-width="19"></path><path class="prefix__cls-3" d="M270 288.74c0-6 0-9 1.5-11.14a8.46 8.46 0 011.94-1.93c2.12-1.51 5.13-1.51 11.14-1.51s9 0 11.14 1.51a8.22 8.22 0 011.93 1.93c1.51 2.13 1.51 5.13 1.51 11.14s0 9-1.51 11.15a8.22 8.22 0 01-1.93 1.93c-2.12 1.51-5.13 1.51-11.14 1.51s-9 0-11.14-1.51a8.46 8.46 0 01-1.94-1.93c-1.5-2.13-1.5-5.13-1.5-11.15zM270 422.88c0-6 0-9 1.5-11.14a8.27 8.27 0 011.94-1.93c2.12-1.51 5.13-1.51 11.14-1.51s9 0 11.14 1.51a8 8 0 011.93 1.93c1.51 2.13 1.51 5.13 1.51 11.14s0 9-1.51 11.14a8.08 8.08 0 01-1.93 1.94c-2.12 1.5-5.13 1.5-11.14 1.5s-9 0-11.14-1.5a8.31 8.31 0 01-1.94-1.94c-1.5-2.12-1.5-5.13-1.5-11.14zM398.25 422.88c0-8.19 0-12.28 2-15.23a11.58 11.58 0 013.22-3.21c2.94-2 7-2 15.23-2s12.28 0 15.22 2a11.58 11.58 0 013.22 3.21c2 3 2 7 2 15.23s0 12.29-2 15.23a11.48 11.48 0 01-3.22 3.22c-2.94 2-7 2-15.22 2s-12.29 0-15.23-2a11.48 11.48 0 01-3.22-3.22c-2-2.94-2-7.04-2-15.23z"></path></svg>