<svg id="Layer_1" data-name="Layer 1" xmlns="http://www.w3.org/2000/svg" viewBox="0 0 705.88 708.14"><defs><style>.cls-1,.cls-3{fill:#fff;}.cls-1{fill-rule:evenodd;}.cls-2,.cls-4{fill:none;stroke:#fff;stroke-miterlimit:133.33;stroke-width:19px;}.cls-2{stroke-linecap:round;}</style></defs><path class="cls-1" d="M378.37,575C478.09,575,559,499,559,405.23a161.75,161.75,0,0,0-3.62-34.35c-8.76-39.53-15.9-21.52-15.9,18.43,0,94-80.89,169.84-180.7,169.84-42.59,0-37.62,15.87,19.56,15.87Z"/><path class="cls-1" d="M316.26,140c-99.71,0-180.65,76-180.65,169.78a161.77,161.77,0,0,0,3.62,34.36c8.75,39.53,15.89,21.51,15.89-18.44,0-94,80.9-169.83,180.71-169.83,42.59,0,37.61-15.87-19.57-15.87Z"/><path class="cls-1" d="M705.88,708.17c0-12.86-.09-261.78-.09-350,0-194.95-157.95-352.92-352.87-352.92S0,163.24,0,358.19s158,353,352.92,353m-2.57-96.89c-143.1,0-259.06-116-259.06-259.16,0-141.44,113.35-256.43,254.23-259C491.82,93.41,612,213.54,609.42,359.85,606.88,500.77,491.83,614.26,350.35,614.26Zm276.07,45.57a32,32,0,1,1,32-32A32,32,0,0,1,626.42,659.83Z"/><path class="cls-2" d="M235,413c0-15.27,0-22.91,3.43-28.52a23.42,23.42,0,0,1,7.7-7.7c5.61-3.44,13.25-3.44,28.52-3.44h12.83c22,0,33,0,39.83,6.83S334.1,398,334.1,420V432.8c0,15.27,0,22.91-3.44,28.52A23.33,23.33,0,0,1,323,469c-5.61,3.44-13.24,3.44-28.52,3.44-22.91,0-34.36,0-42.78-5.16a35.13,35.13,0,0,1-11.55-11.55"/><path class="cls-2" d="M468.24,298.66c0,15.27,0,22.91-3.44,28.52a23.23,23.23,0,0,1-7.7,7.7c-5.61,3.44-13.25,3.44-28.52,3.44H415.75c-22,0-33,0-39.82-6.84s-6.84-17.82-6.84-39.82V278.83c0-15.27,0-22.91,3.44-28.52a23.23,23.23,0,0,1,7.7-7.7c5.61-3.44,13.25-3.44,28.52-3.44,22.91,0,34.37,0,42.78,5.16a34.85,34.85,0,0,1,11.55,11.55"/><path class="cls-3" d="M404.09,288.74c0-6,0-9,1.5-11.14a8.27,8.27,0,0,1,1.94-1.93c2.12-1.51,5.12-1.51,11.14-1.51s9,0,11.14,1.51a8.22,8.22,0,0,1,1.93,1.93c1.51,2.13,1.51,5.13,1.51,11.14s0,9-1.51,11.15a8.22,8.22,0,0,1-1.93,1.93c-2.13,1.51-5.13,1.51-11.14,1.51s-9,0-11.14-1.51a8.27,8.27,0,0,1-1.94-1.93C404.09,297.76,404.09,294.76,404.09,288.74Z"/><path class="cls-3" d="M360.35,472.46a8.75,8.75,0,0,0,17.49,0Zm19.11-95.22,4.86,7.28h0ZM373,383.68l-7.28-4.86h0Zm60.22-19.12H409.92v17.5h23.33Zm-72.9,72.9v35h17.49v-35Zm49.57-72.9c-8,0-14.68,0-20.05.54-5.53.56-10.65,1.78-15.27,4.87l9.72,14.55c1.27-.85,3.18-1.59,7.32-2s9.91-.44,18.28-.44Zm-32.08,49.57c0-8.37,0-14,.45-18.28.42-4.13,1.16-6.05,2-7.31l-14.55-9.72c-3.08,4.62-4.31,9.74-4.87,15.26s-.53,12.05-.53,20.05ZM374.6,370a32.14,32.14,0,0,0-8.85,8.85l14.55,9.72a14.51,14.51,0,0,1,4-4Z"/><path class="cls-3" d="M477,373.31a8.75,8.75,0,1,0-17.5,0Zm-23.15,97.37,3.35,8.08h0Zm12.62-12.63-8.08-3.34h0ZM409.92,481.2h23.33V463.71H409.92ZM477,414.13V373.31h-17.5v40.82ZM433.25,481.2c5.31,0,9.74,0,13.36-.24a32.69,32.69,0,0,0,10.58-2.2l-6.7-16.16a16.43,16.43,0,0,1-5.07.91c-2.89.19-6.62.2-12.17.2Zm26.24-43.74c0,5.56,0,9.29-.2,12.17a16.14,16.14,0,0,1-.91,5.08l16.17,6.69a32.89,32.89,0,0,0,2.19-10.58c.25-3.62.25-8,.25-13.36Zm-2.3,41.3a32.07,32.07,0,0,0,17.36-17.36l-16.17-6.69a14.6,14.6,0,0,1-7.89,7.89Z"/><path class="cls-4" d="M235,298.66c0-22.91,0-34.36,5.15-42.78a35,35,0,0,1,11.55-11.55c8.42-5.16,19.87-5.16,42.78-5.16,15.28,0,22.91,0,28.52,3.44a23.23,23.23,0,0,1,7.7,7.7c3.44,5.61,3.44,13.25,3.44,28.52v12.83c0,22,0,33-6.83,39.82s-17.83,6.84-39.83,6.84H274.61c-15.27,0-22.91,0-28.52-3.44a23.42,23.42,0,0,1-7.7-7.7C235,321.57,235,313.93,235,298.66Z"/><path class="cls-3" d="M270,288.74c0-6,0-9,1.5-11.14a8.46,8.46,0,0,1,1.94-1.93c2.12-1.51,5.13-1.51,11.14-1.51s9,0,11.14,1.51a8.22,8.22,0,0,1,1.93,1.93c1.51,2.13,1.51,5.13,1.51,11.14s0,9-1.51,11.15a8.22,8.22,0,0,1-1.93,1.93c-2.12,1.51-5.13,1.51-11.14,1.51s-9,0-11.14-1.51a8.46,8.46,0,0,1-1.94-1.93C270,297.76,270,294.76,270,288.74Z"/><path class="cls-3" d="M270,422.88c0-6,0-9,1.5-11.14a8.27,8.27,0,0,1,1.94-1.93c2.12-1.51,5.13-1.51,11.14-1.51s9,0,11.14,1.51a8,8,0,0,1,1.93,1.93c1.51,2.13,1.51,5.13,1.51,11.14s0,9-1.51,11.14a8.08,8.08,0,0,1-1.93,1.94c-2.12,1.5-5.13,1.5-11.14,1.5s-9,0-11.14-1.5a8.31,8.31,0,0,1-1.94-1.94C270,431.9,270,428.89,270,422.88Z"/><path class="cls-3" d="M398.25,422.88c0-8.19,0-12.28,2-15.23a11.58,11.58,0,0,1,3.22-3.21c2.94-2,7-2,15.23-2s12.28,0,15.22,2a11.58,11.58,0,0,1,3.22,3.21c2,3,2,7,2,15.23s0,12.29-2,15.23a11.48,11.48,0,0,1-3.22,3.22c-2.94,2-7,2-15.22,2s-12.29,0-15.23-2a11.48,11.48,0,0,1-3.22-3.22C398.25,435.17,398.25,431.07,398.25,422.88Z"/></svg>